# xmcd
#
# Track frame offsets:
#	150
#	12192
#	26244
#	41435
#	62588
#	75000
#	89366
#	104262
#	120170
#	137733
#	151378
#	168308
#	183602
#	198043
#	215358
#	231848
#	247100
#	260459
#	275688
#	290715
#
# Disc length: 4057 seconds
#
# Revision: 1
# Processed by: cddbd v1.5PL3 Copyright (c) Steve Scherf et al.
# Submitted via: EasyCDDAExtractor 6.5.0.3
#
DISCID=0f0fd714
DTITLE=El Vecino Presenta A Liberación - 20 Exitos Romanticos
DYEAR=1900
DGENRE=
TTITLE0=Si Estuvieras Conmigo
TTITLE1=Todo Por Tu Amor
TTITLE2=Nubes De Algodon
TTITLE3=Ese Loco Soy Yo
TTITLE4=Me Enamore De Un Angel
TTITLE5=Mi Pequeño Amor
TTITLE6=Llegaste Tu
TTITLE7=Para Estar Contigo
TTITLE8=Un Regalo De Amor
TTITLE9=Por Esa Yegua
TTITLE10=Es Mas Facil
TTITLE11=Nunca Supe Mas De Ti
TTITLE12=La Culpa Ha Sido Mia
TTITLE13=Y No Hay Mañana
TTITLE14=Vuelve Mi Amor
TTITLE15=Nunca Supe Mas De Ti
TTITLE16=Quien Me Ha Robado Tu Corazón
TTITLE17=Como Duele
TTITLE18=Por Ti
TTITLE19=Cascos Ligeros
EXTD=
EXTT0=
EXTT1=
EXTT2=
EXTT3=
EXTT4=
EXTT5=
EXTT6=
EXTT7=
EXTT8=
EXTT9=
EXTT10=
EXTT11=
EXTT12=
EXTT13=
EXTT14=
EXTT15=
EXTT16=
EXTT17=
EXTT18=
EXTT19=
PLAYORDER=
